<?xml version="1.0" standalone="no"?>
<!DOCTYPE svg PUBLIC "-//W3C//DTD SVG 20010904//EN"
 "http://www.w3.org/TR/2001/REC-SVG-20010904/DTD/svg10.dtd">
<svg version="1.0" xmlns="http://www.w3.org/2000/svg"
 width="1280.000000pt" height="1224.000000pt" viewBox="0 0 1280.000000 1224.000000"
 preserveAspectRatio="xMidYMid meet">
<metadata>
Created by potrace 1.15, written by Peter Selinger 2001-2017
</metadata>
<g transform="translate(0.000000,1224.000000) scale(0.100000,-0.100000)"
fill="#000000" stroke="none">
<path d="M6208 11998 c-69 -134 -487 -938 -928 -1788 -441 -850 -803 -1546
-804 -1547 -1 -1 -578 -81 -1281 -178 -704 -97 -1572 -216 -1930 -265 -357
-50 -759 -105 -893 -122 -133 -18 -241 -36 -240 -40 2 -4 707 -663 1568 -1465
1165 -1085 1565 -1462 1563 -1478 -1 -11 -63 -360 -138 -775 -229 -1269 -595
-3284 -600 -3308 -5 -19 309 135 1938 949 l1942 972 1787 -897 c1498 -752
1787 -901 1790 -919 3 -20 9 -22 62 -22 l60 0 8 35 c30 118 24 109 78 116 28
4 50 9 50 13 0 3 -18 107 -40 231 -66 366 -132 731 -270 1505 -72 402 -153
854 -180 1005 -27 151 -79 442 -115 645 -36 204 -70 390 -75 415 -9 44 -9 46
28 80 462 424 3111 2885 3108 2887 -2 3 -980 140 -2173 307 l-2168 302 -60
116 c-33 63 -449 870 -925 1792 l-865 1676 -85 0 -86 0 -126 -242z"/>
</g>
</svg>
