<?xml version="1.0" standalone="no"?>
<!DOCTYPE svg PUBLIC "-//W3C//DTD SVG 20010904//EN"
 "http://www.w3.org/TR/2001/REC-SVG-20010904/DTD/svg10.dtd">
<svg version="1.0" xmlns="http://www.w3.org/2000/svg"
 width="1280.000000pt" height="1095.000000pt" viewBox="0 0 1280.000000 1095.000000"
 preserveAspectRatio="xMidYMid meet">
<metadata>
Created by potrace 1.15, written by Peter Selinger 2001-2017
</metadata>
<g transform="translate(0.000000,1095.000000) scale(0.100000,-0.100000)"
fill="#000000" stroke="none">
<path d="M4435 10935 c-38 -7 -106 -26 -150 -43 -44 -17 -120 -43 -170 -57
-298 -86 -450 -203 -470 -361 -7 -50 -4 -60 125 -456 21 -65 26 -58 -75 -126
-77 -52 -201 -156 -247 -207 -43 -48 -78 -115 -78 -148 0 -33 34 -73 83 -98
46 -24 167 -48 242 -49 47 0 51 -2 62 -30 14 -36 77 -68 152 -77 l49 -6 6 -43
c17 -128 169 -276 347 -341 l49 -17 0 -63 c0 -35 -2 -63 -5 -63 -3 0 -152 -43
-333 -96 -306 -89 -329 -98 -365 -132 -60 -57 -220 -250 -346 -418 l-114 -151
-128 61 c-71 33 -127 64 -126 68 1 4 45 38 97 76 l95 69 -2 129 c-2 155 -29
331 -84 547 -39 151 -120 411 -141 451 -8 15 -3 24 26 48 20 16 36 38 36 49 0
33 -67 95 -149 138 -84 43 -91 54 -91 136 0 58 -48 223 -86 297 -77 148 -230
269 -404 318 -139 39 -389 36 -554 -6 -335 -86 -491 -366 -432 -780 l17 -119
-205 -545 c-231 -615 -222 -572 -128 -623 60 -33 190 -65 297 -73 75 -6 139
-23 90 -24 -11 0 -65 -22 -120 -50 -301 -150 -666 -527 -1054 -1090 -40 -58
-85 -122 -101 -144 -53 -69 -62 -139 -29 -215 17 -41 74 -97 401 -392 210
-189 385 -345 389 -347 5 -2 21 12 38 30 16 18 31 31 33 28 3 -3 45 -57 94
-120 49 -63 113 -143 142 -177 l52 -63 9 -107 c5 -60 8 -109 6 -111 -1 -1 -20
8 -41 20 -47 25 -77 21 -123 -18 l-31 -26 -92 81 c-50 45 -94 80 -97 79 -3 -2
-50 -48 -104 -104 l-97 -100 60 -86 60 -86 -45 -45 c-40 -40 -45 -49 -45 -90
0 -42 5 -52 58 -109 67 -72 298 -348 329 -393 16 -23 24 -57 32 -145 28 -291
141 -1294 146 -1299 4 -3 109 -10 235 -15 l229 -9 10 -51 c6 -28 37 -199 70
-381 55 -307 60 -344 65 -530 4 -110 9 -225 12 -255 l5 -56 -118 -89 c-286
-217 -430 -413 -368 -502 24 -34 134 -64 230 -64 198 1 381 96 593 309 l113
114 107 -104 c206 -198 389 -298 545 -298 81 0 146 24 171 62 25 39 30 118 11
184 -39 136 -120 247 -300 412 l-68 62 16 132 c36 292 30 424 -18 466 l-26 22
15 108 c18 120 37 222 67 360 l21 92 47 0 c192 0 458 77 530 154 l24 26 -31
102 c-73 242 -105 521 -118 1023 -4 138 -4 316 1 397 l7 147 64 42 c35 23 64
43 64 46 0 2 -36 159 -80 349 l-81 344 32 48 c18 26 100 113 183 194 l150 146
41 -34 c37 -30 43 -41 49 -87 9 -81 7 -495 -4 -671 -6 -87 -9 -160 -7 -162 2
-2 43 -11 92 -21 l90 -18 7 -880 c5 -484 11 -1273 15 -1754 l8 -875 62 3 62 2
-54 -113 c-80 -167 -108 -256 -112 -363 -4 -80 -2 -95 19 -134 32 -60 82 -85
168 -86 36 0 76 3 90 7 25 7 27 4 54 -75 98 -281 274 -558 434 -681 320 -246
671 -152 944 251 55 83 156 280 184 360 10 29 21 53 24 53 3 0 131 -58 284
-130 l278 -130 426 0 427 -1 50 -75 c67 -102 212 -239 300 -286 232 -121 455
-81 667 121 226 215 408 614 493 1082 9 46 18 94 20 106 l5 22 53 -23 c173
-76 348 -52 376 51 40 141 -41 307 -250 514 l-117 116 -7 179 c-3 99 -11 236
-16 306 -8 91 -7 149 1 205 13 94 55 318 76 412 l16 69 91 6 c219 17 403 76
494 158 22 20 22 21 4 67 -42 107 -82 306 -106 534 -22 214 -38 677 -30 894
l7 192 64 42 c35 23 64 46 64 52 0 5 -36 163 -80 349 l-80 340 22 31 c12 18
42 56 66 85 l45 54 91 -91 c61 -60 107 -97 140 -111 26 -11 89 -55 138 -98
l90 -77 -6 -155 c-8 -199 -23 -375 -46 -569 -11 -85 -18 -157 -16 -159 2 -2
43 -12 90 -23 77 -18 86 -23 86 -43 0 -13 -43 -685 -95 -1493 -52 -809 -95
-1483 -95 -1497 0 -24 3 -26 45 -26 25 0 45 -2 45 -5 0 -3 -18 -37 -40 -76
-87 -153 -130 -278 -130 -375 0 -139 62 -197 210 -197 153 1 316 104 491 313
89 105 145 207 155 281 l7 49 72 0 c72 0 74 1 79 27 3 16 40 231 81 478 42
248 89 527 105 620 16 94 61 359 100 590 39 231 74 431 78 443 5 16 43 -166
116 -560 60 -320 152 -815 205 -1098 l96 -515 92 -3 92 -3 11 -35 c17 -51 122
-187 215 -279 142 -142 278 -215 397 -215 185 0 253 106 198 310 -25 90 -110
266 -180 372 l-51 78 20 29 c12 16 21 42 21 59 0 16 -36 371 -80 788 -252
2381 -300 2839 -300 2860 0 17 29 43 130 114 362 257 631 532 699 716 30 80
35 128 21 207 -42 244 -178 600 -318 832 -186 309 -453 557 -735 682 -67 29
-195 88 -284 130 l-163 77 0 63 0 62 62 31 c178 90 286 214 304 347 5 45 10
52 33 58 33 8 79 37 132 81 36 30 48 34 98 34 86 0 218 18 292 40 80 24 129
64 129 108 0 82 -151 206 -427 349 -70 36 -129 67 -130 67 -1 1 23 96 53 211
77 294 71 359 -41 470 -116 117 -330 190 -675 230 -313 37 -566 -4 -621 -100
-11 -18 -29 -111 -49 -240 -17 -115 -34 -218 -38 -228 -5 -13 -97 -56 -276
-132 -148 -62 -280 -116 -294 -120 -34 -8 -82 -43 -82 -59 0 -47 136 -126 321
-186 l96 -31 5 -93 c7 -123 36 -176 97 -176 15 0 17 -8 13 -54 -6 -75 14 -215
43 -295 39 -108 73 -160 154 -241 59 -58 96 -86 165 -119 l88 -44 -168 -52
c-93 -28 -252 -75 -354 -105 l-185 -55 -120 -122 c-66 -67 -140 -146 -165
-177 -25 -30 -49 -55 -54 -56 -5 0 -48 26 -95 59 -132 90 -342 209 -492 280
l-137 64 28 44 c16 24 38 81 51 126 21 72 23 103 23 247 -1 186 -23 314 -89
525 -48 154 -65 191 -124 273 -28 38 -51 74 -51 80 0 6 24 13 53 16 297 30
379 40 484 61 130 27 228 58 253 82 13 13 13 16 -4 28 -39 30 -316 73 -601 95
-77 6 -163 13 -191 16 l-51 5 -18 87 c-47 237 -160 421 -320 521 -27 18 -86
44 -130 58 -70 24 -96 27 -210 27 -214 0 -362 -29 -505 -98 -83 -40 -203 -157
-247 -241 -39 -75 -78 -208 -88 -297 -3 -38 -10 -68 -14 -68 -30 0 -334 -34
-415 -46 -215 -32 -297 -62 -267 -98 35 -42 299 -95 587 -117 131 -11 152 -15
173 -34 l23 -23 -30 -93 c-79 -240 -113 -424 -114 -604 0 -222 55 -360 174
-437 28 -18 44 -34 36 -36 -166 -50 -351 -173 -565 -376 l-102 -97 -36 15
c-104 44 -339 60 -457 32 l-57 -13 -65 76 c-84 100 -262 271 -356 343 -166
126 -231 158 -511 257 -145 52 -280 100 -299 108 l-35 14 53 29 c134 73 221
161 283 285 53 108 71 201 67 346 l-3 116 30 9 c51 15 70 63 70 175 l0 97 55
25 c90 42 177 103 210 148 37 51 42 112 10 129 -11 6 -135 51 -277 100 -141
50 -260 93 -263 98 -4 4 -14 36 -24 72 -102 380 -338 548 -681 485z m1161
-3297 c24 -17 44 -34 44 -37 0 -3 -7 -31 -15 -61 -8 -30 -15 -69 -15 -87 0
-29 -15 -52 -26 -40 -7 6 -42 257 -36 257 2 0 24 -14 48 -32z m6462 -669 c100
-142 183 -262 184 -268 3 -11 -320 -419 -333 -420 -3 -1 -15 205 -27 457 -13
251 -25 470 -28 487 -6 41 -7 42 204 -256z m-10954 36 c14 -174 37 -441 62
-707 l7 -78 -96 0 -96 0 21 36 21 36 -229 229 -229 229 65 59 c36 32 151 137
255 233 105 97 193 173 196 169 3 -3 13 -96 23 -206z m2519 1 c48 -26 87 -50
87 -52 0 -3 -24 -40 -53 -84 l-53 -79 -107 107 -107 108 32 46 33 47 40 -23
c22 -13 79 -44 128 -70z m6390 -358 c-7 -100 -13 -205 -15 -232 l-3 -50 -86
98 -86 99 76 101 c42 56 86 116 96 134 11 17 22 32 25 32 3 0 0 -82 -7 -182z
m-6794 -269 l73 -78 -21 -29 c-15 -22 -21 -45 -21 -87 0 -49 -2 -56 -17 -51
-10 2 -32 7 -50 11 l-31 6 -6 82 c-11 167 -13 227 -7 226 3 -1 39 -37 80 -80z
m3960 -427 c31 -40 36 -60 46 -189 l5 -73 -32 20 c-18 11 -40 20 -49 20 -9 0
-38 25 -65 56 -39 46 -45 59 -36 73 6 9 28 42 48 74 20 31 40 57 45 57 4 0 21
-17 38 -38z m665 -3527 c3 -105 9 -226 12 -270 l6 -80 -109 -82 c-135 -100
-262 -218 -321 -298 -25 -33 -43 -53 -40 -45 3 8 102 239 219 514 167 390 215
493 220 474 3 -13 9 -109 13 -213z m-2645 -505 c63 -6 116 -11 117 -13 1 -1
32 -144 69 -318 l66 -317 -21 -88 c-62 -268 -166 -503 -270 -617 -132 -144
-247 -153 -374 -30 -109 107 -205 294 -269 529 l-25 91 60 84 c34 46 73 111
88 144 27 59 57 206 46 224 -4 5 32 12 81 15 118 9 167 33 210 104 27 47 38
80 59 180 5 26 5 26 163 12z m3123 -222 c-31 -330 -111 -646 -219 -863 -54
-108 -98 -169 -165 -230 -53 -47 -75 -57 -63 -27 4 9 23 66 43 125 l36 108
-98 98 -98 98 -1 59 c-2 49 -8 67 -36 107 -51 75 -171 162 -335 244 -39 19
-72 36 -74 38 -3 3 40 108 49 119 5 5 6 -6 3 -25 -12 -85 61 -123 236 -123
114 0 159 8 251 48 120 51 297 187 396 304 49 59 60 67 72 56 13 -12 13 -32 3
-136z m-524 -1165 c-16 -2 -40 -2 -55 0 -16 2 -3 4 27 4 30 0 43 -2 28 -4z"/>
</g>
</svg>
