<?xml version="1.0" standalone="no"?>
<!DOCTYPE svg PUBLIC "-//W3C//DTD SVG 20010904//EN"
 "http://www.w3.org/TR/2001/REC-SVG-20010904/DTD/svg10.dtd">
<svg version="1.0" xmlns="http://www.w3.org/2000/svg"
 width="736.000000pt" height="1280.000000pt" viewBox="0 0 736.000000 1280.000000"
 preserveAspectRatio="xMidYMid meet">
<metadata>
Created by potrace 1.15, written by Peter Selinger 2001-2017
</metadata>
<g transform="translate(0.000000,1280.000000) scale(0.100000,-0.100000)"
fill="#000000" stroke="none">
<path d="M3450 12794 c-19 -2 -84 -9 -145 -14 -522 -50 -1078 -239 -1535 -522
-644 -398 -1152 -982 -1454 -1668 -274 -624 -376 -1339 -281 -1975 29 -195
135 -675 155 -700 5 -5 25 -55 45 -110 52 -142 179 -397 275 -555 96 -157 482
-831 593 -1035 378 -694 570 -1288 669 -2065 16 -129 22 -249 27 -550 6 -362
8 -389 28 -443 32 -86 70 -145 132 -208 71 -70 149 -114 247 -139 75 -19 113
-20 1464 -20 1349 0 1389 1 1464 20 183 47 320 173 384 354 23 67 25 88 33
361 11 395 33 645 85 960 97 585 283 1117 588 1685 101 187 531 943 566 995
106 157 260 449 324 615 20 52 43 109 51 125 36 75 141 561 170 785 9 69 19
211 22 315 27 870 -263 1727 -820 2424 -128 159 -396 428 -552 552 -558 446
-1173 706 -1880 795 -113 14 -578 27 -655 18z"/>
<path d="M2003 2652 c-67 -24 -118 -64 -154 -121 -40 -62 -52 -113 -47 -192 8
-112 68 -198 178 -252 l45 -22 1655 0 1655 0 45 22 c68 34 112 75 145 134 27
49 30 63 30 144 0 74 -4 97 -23 132 -35 66 -79 110 -140 140 l-57 28 -1640 2
c-1554 2 -1643 2 -1692 -15z"/>
<path d="M2003 1922 c-67 -24 -118 -64 -154 -121 -40 -62 -52 -113 -47 -192 8
-112 68 -198 178 -252 l45 -22 1655 0 1655 0 45 22 c68 34 112 75 145 134 27
49 30 63 30 144 0 74 -4 97 -23 132 -35 66 -79 110 -140 140 l-57 28 -1640 2
c-1554 2 -1643 2 -1692 -15z"/>
<path d="M1994 1189 c-201 -77 -260 -342 -109 -493 24 -24 65 -54 92 -67 l48
-24 1655 0 1655 0 48 24 c244 121 232 467 -20 561 -53 20 -75 20 -1686 19
-1594 0 -1633 0 -1683 -20z"/>
<path d="M2611 463 c208 -270 483 -414 866 -454 128 -13 373 -7 483 11 276 46
481 144 650 310 48 47 97 100 109 118 l22 32 -1072 0 c-1019 0 -1071 -1 -1058
-17z"/>
</g>
</svg>
