<?xml version="1.0" standalone="no"?>
<!DOCTYPE svg PUBLIC "-//W3C//DTD SVG 20010904//EN"
 "http://www.w3.org/TR/2001/REC-SVG-20010904/DTD/svg10.dtd">
<svg version="1.0" xmlns="http://www.w3.org/2000/svg"
 width="640.000000pt" height="1280.000000pt" viewBox="0 0 640.000000 1280.000000"
 preserveAspectRatio="xMidYMid meet">
<metadata>
Created by potrace 1.15, written by Peter Selinger 2001-2017
</metadata>
<g transform="translate(0.000000,1280.000000) scale(0.100000,-0.100000)"
fill="#000000" stroke="none">
<path d="M3645 12790 c-804 -91 -1465 -668 -1659 -1449 -45 -180 -51 -236 -51
-476 1 -211 3 -240 28 -358 40 -186 87 -323 168 -486 54 -111 68 -146 57 -152
-137 -77 -443 -364 -552 -518 -351 -493 -475 -1059 -360 -1629 77 -385 260
-732 541 -1032 l80 -85 -278 -755 c-153 -415 -279 -759 -279 -765 0 -5 56 -30
125 -54 69 -25 129 -48 135 -51 12 -8 13 -6 -680 -1885 -275 -748 -499 -1367
-497 -1376 7 -27 419 -590 444 -606 21 -14 47 -8 350 83 180 54 334 103 340
109 7 6 64 150 127 320 63 171 259 704 436 1185 177 481 393 1069 480 1305
l159 430 29 -3 c28 -3 31 0 58 75 l29 78 3 -242 2 -243 160 0 160 0 0 -1866
c0 -1257 3 -1872 10 -1885 15 -27 665 -459 691 -459 20 0 602 426 621 454 4 6
8 854 8 1884 l0 1872 30 0 30 0 0 883 0 882 97 45 c579 268 1028 797 1202
1415 52 186 73 329 78 546 6 207 -4 329 -38 501 -74 369 -250 731 -489 1005
-36 41 -78 90 -94 108 l-28 34 46 56 c193 238 335 562 392 900 26 150 23 452
-5 609 -146 814 -756 1428 -1565 1577 -128 23 -413 33 -541 19z m340 -251
c673 -58 1228 -491 1449 -1127 64 -184 81 -297 81 -537 0 -182 -3 -225 -24
-325 -46 -222 -127 -417 -251 -602 -91 -135 -108 -154 -125 -142 -7 5 -65 44
-129 87 -523 356 -1179 470 -1806 312 -52 -13 -130 -28 -173 -34 -159 -22
-355 -75 -498 -136 -87 -37 -79 -39 -127 45 -76 137 -152 363 -183 550 -20
116 -17 394 5 520 96 547 434 994 929 1230 199 94 372 142 584 159 141 12 137
12 268 0z m-140 -2891 c121 -39 229 -135 284 -251 30 -63 54 -154 42 -161 -3
-2 -50 -10 -104 -16 -140 -18 -424 -8 -549 19 -99 22 -277 76 -290 89 -14 14
51 133 103 187 140 148 323 195 514 133z m-500 -628 c147 -42 302 -63 480 -64
94 -1 201 3 238 7 l69 8 -19 -32 c-10 -18 -45 -60 -78 -94 -50 -51 -71 -65
-125 -82 -141 -45 -266 -39 -396 22 -83 38 -175 118 -224 195 -45 70 -46 69
55 40z"/>
</g>
</svg>
