<?xml version="1.0" standalone="no"?>
<!DOCTYPE svg PUBLIC "-//W3C//DTD SVG 20010904//EN"
 "http://www.w3.org/TR/2001/REC-SVG-20010904/DTD/svg10.dtd">
<svg version="1.0" xmlns="http://www.w3.org/2000/svg"
 width="1280.000000pt" height="1130.000000pt" viewBox="0 0 1280.000000 1130.000000"
 preserveAspectRatio="xMidYMid meet">
<metadata>
Created by potrace 1.15, written by Peter Selinger 2001-2017
</metadata>
<g transform="translate(0.000000,1130.000000) scale(0.100000,-0.100000)"
fill="#000000" stroke="none">
<path d="M8305 11293 c-16 -2 -64 -10 -105 -18 -41 -7 -109 -16 -150 -19 -41
-4 -219 -17 -395 -31 -176 -14 -518 -38 -760 -55 -2072 -143 -2759 -202 -3500
-301 -1031 -136 -1636 -319 -1844 -556 -46 -52 -48 -71 -9 -126 55 -77 297
-235 633 -414 83 -44 422 -217 755 -385 333 -168 675 -342 760 -388 828 -443
1178 -718 1173 -924 -7 -274 -398 -607 -1143 -975 -704 -348 -1533 -658 -3210
-1202 -316 -102 -489 -164 -505 -181 -12 -13 90 -5 315 23 1331 167 3499 785
4860 1386 585 259 982 492 1186 697 147 149 174 254 101 398 -174 342 -812
739 -2252 1402 -500 230 -755 355 -817 401 -138 101 18 183 457 239 258 33
683 60 1225 76 410 12 1907 12 2433 0 l399 -9 58 -63 c93 -101 227 -168 370
-184 l62 -7 -6 -101 c-122 -1935 -1043 -3317 -2896 -4343 -240 -133 -365 -197
-580 -297 -113 -53 -217 -102 -231 -109 l-26 -12 34 -105 c19 -58 66 -202 104
-320 264 -807 382 -1170 459 -1405 39 -121 107 -329 151 -463 278 -852 391
-1199 467 -1432 39 -118 139 -424 222 -680 84 -256 177 -543 208 -638 l56
-172 2369 2 2369 3 13 40 c7 22 77 236 155 475 78 239 177 543 220 675 43 132
138 422 210 645 72 223 167 513 210 645 74 225 111 340 291 892 39 120 106
326 149 458 43 132 142 436 220 675 78 239 162 495 186 569 24 74 42 135 41
136 -1 1 -59 20 -128 42 -582 188 -1161 516 -1694 959 -157 131 -525 496 -660
654 -759 893 -1215 1986 -1300 3119 -8 107 -6 111 65 111 25 0 73 7 105 15
228 59 394 230 441 455 30 142 4 311 -69 440 -66 118 -209 225 -352 265 -36
10 -118 19 -207 22 l-148 6 0 -3042 0 -3041 53 0 c134 -1 303 -51 430 -127 94
-56 224 -179 286 -272 91 -134 161 -315 198 -514 26 -140 23 -416 -5 -570 -83
-442 -309 -776 -619 -913 -131 -58 -206 -69 -478 -68 -223 0 -258 3 -326 21
-392 109 -672 489 -766 1038 -24 140 -21 394 6 525 107 513 441 845 884 877
l87 6 0 3038 0 3039 -132 -1 c-73 -1 -146 -4 -163 -6z"/>
</g>
</svg>
