<?xml version="1.0" standalone="no"?>
<!DOCTYPE svg PUBLIC "-//W3C//DTD SVG 20010904//EN"
 "http://www.w3.org/TR/2001/REC-SVG-20010904/DTD/svg10.dtd">
<svg version="1.0" xmlns="http://www.w3.org/2000/svg"
 width="1188.000000pt" height="1280.000000pt" viewBox="0 0 1188.000000 1280.000000"
 preserveAspectRatio="xMidYMid meet">
<metadata>
Created by potrace 1.15, written by Peter Selinger 2001-2017
</metadata>
<g transform="translate(0.000000,1280.000000) scale(0.100000,-0.100000)"
fill="#000000" stroke="none">
<path d="M10416 12790 c-26 -5 -55 -12 -65 -15 -9 -4 -392 -22 -851 -41 -784
-31 -1779 -74 -2535 -109 -959 -44 -1526 -67 -2910 -116 -185 -7 -846 -13
-1505 -15 l-1175 -2 -74 -31 c-113 -46 -226 -118 -310 -198 l-76 -72 55 -2
c30 -1 102 -4 160 -8 l105 -6 -194 -35 -194 -35 -34 -45 c-79 -107 -165 -315
-204 -490 -103 -476 32 -1009 332 -1309 100 -100 198 -161 334 -208 l70 -25
748 2 c411 1 747 -1 747 -5 0 -3 -7 -16 -14 -28 -18 -27 -633 -1288 -723
-1482 -125 -268 -296 -652 -440 -985 -774 -1791 -1263 -3256 -1468 -4400 -14
-80 -28 -153 -31 -163 -5 -14 13 -8 85 28 50 25 91 43 91 40 0 -2 -45 -67
-100 -143 -54 -77 -104 -150 -109 -163 -12 -28 -37 -252 -51 -459 -36 -526 28
-990 179 -1291 139 -277 354 -456 641 -534 76 -21 132 -28 285 -36 105 -5 660
-31 1235 -59 1610 -77 3469 -166 4385 -210 457 -22 1210 -58 1675 -80 465 -22
883 -45 930 -51 268 -37 520 67 681 280 138 181 254 524 294 867 17 149 20
464 5 615 -21 209 -80 441 -150 596 -66 146 -185 285 -287 336 -74 38 -167 53
-239 39 -71 -15 -834 -17 -834 -3 0 16 89 427 126 581 77 324 189 695 384
1280 228 685 400 1151 703 1902 l164 407 -76 16 c-120 26 -125 31 -36 39 138
12 141 13 159 59 9 22 15 41 13 43 -1 1 -123 14 -272 28 -148 15 -272 29 -274
32 -2 2 41 4 96 4 55 0 187 3 294 7 l195 6 19 46 c10 25 78 186 151 356 257
603 506 1134 836 1785 l240 475 -7 98 -7 97 96 134 95 133 34 164 c55 258 62
323 62 569 -1 285 -20 449 -86 738 -134 588 -461 938 -970 1037 -98 19 -333
28 -403 15z"/>
</g>
</svg>
