<?xml version="1.0" standalone="no"?>
<!DOCTYPE svg PUBLIC "-//W3C//DTD SVG 20010904//EN"
 "http://www.w3.org/TR/2001/REC-SVG-20010904/DTD/svg10.dtd">
<svg version="1.0" xmlns="http://www.w3.org/2000/svg"
 width="1280.000000pt" height="1067.000000pt" viewBox="0 0 1280.000000 1067.000000"
 preserveAspectRatio="xMidYMid meet">
<metadata>
Created by potrace 1.15, written by Peter Selinger 2001-2017
</metadata>
<g transform="translate(0.000000,1067.000000) scale(0.100000,-0.100000)"
fill="#000000" stroke="none">
<path d="M11818 10564 c-66 -15 -133 -47 -166 -77 -22 -20 -22 -24 -16 -169
l7 -148 -114 0 c-185 0 -818 19 -1029 30 -273 15 -372 26 -550 61 -144 29
-166 31 -300 25 -85 -3 -228 -18 -345 -36 -187 -29 -227 -32 -600 -40 -220 -5
-445 -14 -500 -19 -55 -6 -112 -11 -127 -11 -24 0 -27 -4 -32 -47 -13 -107
-27 -186 -36 -202 -7 -12 -8 -7 -4 16 3 17 1 39 -5 50 -9 14 -11 7 -10 -42 2
-82 1 -88 -16 -111 -13 -17 -14 -16 -4 14 6 18 9 67 7 110 -4 84 -39 177 -91
238 -26 30 -30 32 -149 43 -309 29 -856 42 -1027 24 -58 -6 -62 -8 -56 -27 4
-12 10 -55 12 -97 5 -70 3 -80 -26 -137 -29 -57 -38 -91 -56 -197 -7 -38 -8
-39 -17 -15 -5 14 -13 77 -17 141 -12 196 -64 268 -222 308 -251 64 -684 79
-906 31 -74 -16 -98 -44 -120 -143 -14 -61 -23 -83 -36 -85 -11 -2 -51 29
-110 86 -50 49 -107 97 -125 106 -49 25 -141 30 -312 16 -84 -6 -292 -12 -462
-13 l-308 0 -29 -46 c-35 -54 -91 -171 -91 -188 0 -28 -42 -123 -55 -123 -20
0 -62 55 -101 131 -36 73 -40 89 -23 89 5 0 7 -4 4 -10 -3 -5 2 -24 12 -42 13
-26 18 -29 21 -15 2 10 10 30 17 45 10 18 11 28 4 33 -7 4 -5 9 5 12 23 9 20
39 -10 83 -73 107 -181 133 -482 113 -171 -11 -448 -42 -458 -52 -3 -2 -12
-33 -21 -68 -18 -73 -37 -114 -66 -146 -39 -43 -60 -29 -137 87 -24 36 -55 78
-69 93 -50 54 -64 57 -304 62 -122 3 -472 11 -777 20 -305 8 -567 15 -581 15
-19 0 -33 10 -50 35 -15 22 -46 46 -79 63 -52 25 -63 27 -195 27 -133 0 -343
-25 -375 -45 -13 -8 -12 -219 20 -2920 5 -443 14 -1203 20 -1690 6 -487 15
-1254 20 -1705 5 -451 15 -1256 21 -1790 6 -533 14 -1166 17 -1405 l7 -435 98
-51 c54 -27 94 -54 90 -58 -4 -5 3 -5 16 -1 16 5 21 4 17 -4 -5 -7 3 -9 23 -5
l29 6 13 -75 c15 -89 12 -87 144 -87 78 0 185 12 315 35 23 5 30 3 22 -3 -22
-15 45 -24 92 -11 47 12 89 47 81 67 -2 7 -1 11 4 8 5 -3 14 7 19 23 6 16 30
43 57 61 33 23 43 35 34 40 -23 15 99 23 242 16 425 -19 407 -19 584 4 94 12
242 25 330 29 l160 6 6 65 6 65 2 -60 c2 -48 4 -55 11 -34 4 16 2 53 -5 90 -7
35 -14 53 -15 39 -2 -22 -3 -22 -10 8 -6 25 -6 119 1 207 0 6 -3 21 -6 35 -6
22 -5 21 10 -5 32 -56 44 -103 60 -237 23 -193 16 -178 78 -179 35 0 46 -3 33
-8 -32 -12 60 -31 156 -31 76 0 232 -13 296 -25 15 -2 9 2 -13 9 -53 19 -43
19 78 -1 64 -10 162 -16 262 -17 95 0 148 -3 130 -8 -61 -15 235 2 365 22 278
42 358 50 519 50 129 0 187 -5 261 -21 149 -32 197 -39 315 -44 69 -4 106 -2
100 4 -6 5 -23 11 -40 13 -16 2 56 5 160 6 243 3 509 18 750 42 243 24 293 27
625 45 365 20 498 19 687 -4 87 -11 185 -22 218 -25 81 -8 286 9 414 33 58 12
106 19 108 17 5 -4 -116 -32 -197 -45 -93 -15 -12 -12 99 4 110 16 164 38 168
71 3 18 2 18 -7 -1 -9 -16 -9 -15 -5 10 7 35 41 108 86 183 36 60 38 87 27
302 -6 100 -5 128 3 107 6 -15 15 -25 20 -21 5 3 9 -27 9 -69 0 -41 3 -90 6
-108 4 -26 3 -30 -5 -19 -8 11 -11 0 -11 -46 0 -60 0 -61 26 -56 18 3 24 9 20
21 -3 9 2 5 11 -8 10 -13 40 -51 67 -85 57 -71 76 -112 76 -162 0 -29 7 -44
35 -69 34 -32 109 -65 149 -65 13 0 17 -3 10 -8 -25 -16 420 -13 946 7 591 22
669 28 990 68 254 32 602 36 815 9 149 -19 215 -33 175 -36 -17 -2 -20 -4 -8
-7 15 -4 18 -20 20 -101 l3 -96 52 -37 c81 -56 178 -84 297 -84 55 0 91 -2 80
-3 -45 -9 -32 -20 17 -16 101 9 198 45 239 89 l25 26 -28 -10 c-15 -6 -40 -17
-57 -26 -16 -8 -33 -15 -37 -15 -4 0 28 20 72 43 44 23 92 51 108 61 l27 18 0
226 c0 124 4 457 10 741 5 284 14 809 20 1166 6 358 15 916 20 1240 5 325 14
871 20 1215 14 841 28 1718 40 2455 6 336 17 1031 25 1545 8 514 17 1053 21
1196 l6 262 -34 11 c-36 11 -181 40 -347 67 -103 18 -103 18 -135 61 l-31 42
-105 0 c-58 0 -131 -7 -162 -15z m-9233 -9530 c-8 -38 -15 -80 -16 -94 -2 -24
-2 -24 -6 -2 -2 12 -8 22 -13 22 -5 0 -11 -10 -13 -22 -3 -13 -3 -1 -1 25 3
41 50 154 60 144 2 -2 -3 -35 -11 -73z m5602 -500 c-3 -3 -12 -4 -19 -1 -8 3
-5 6 6 6 11 1 17 -2 13 -5z m-3724 -51 c-18 -2 -48 -2 -65 0 -18 2 -4 4 32 4
36 0 50 -2 33 -4z m170 0 c-13 -2 -33 -2 -45 0 -13 2 -3 4 22 4 25 0 35 -2 23
-4z m90 -10 c-7 -2 -19 -2 -25 0 -7 3 -2 5 12 5 14 0 19 -2 13 -5z m64 -9 c-3
-3 -12 -4 -19 -1 -8 3 -5 6 6 6 11 1 17 -2 13 -5z m-1734 -21 c-7 -2 -21 -2
-30 0 -10 3 -4 5 12 5 17 0 24 -2 18 -5z m70 -10 c-7 -2 -19 -2 -25 0 -7 3 -2
5 12 5 14 0 19 -2 13 -5z m620 -30 c-7 -2 -21 -2 -30 0 -10 3 -4 5 12 5 17 0
24 -2 18 -5z m8414 -209 c-3 -3 -12 -4 -19 -1 -8 3 -5 6 6 6 11 1 17 -2 13 -5z"/>
<path d="M12642 10265 c0 -16 2 -22 5 -12 2 9 2 23 0 30 -3 6 -5 -1 -5 -18z"/>
<path d="M2581 684 c0 -11 3 -14 6 -6 3 7 2 16 -1 19 -3 4 -6 -2 -5 -13z"/>
<path d="M6448 473 c7 -3 16 -2 19 1 4 3 -2 6 -13 5 -11 0 -14 -3 -6 -6z"/>
<path d="M7853 463 c9 -2 23 -2 30 0 6 3 -1 5 -18 5 -16 0 -22 -2 -12 -5z"/>
</g>
</svg>
