<?xml version="1.0" standalone="no"?>
<!DOCTYPE svg PUBLIC "-//W3C//DTD SVG 20010904//EN"
 "http://www.w3.org/TR/2001/REC-SVG-20010904/DTD/svg10.dtd">
<svg version="1.0" xmlns="http://www.w3.org/2000/svg"
 width="1280.000000pt" height="1280.000000pt" viewBox="0 0 1280.000000 1280.000000"
 preserveAspectRatio="xMidYMid meet">
<metadata>
Created by potrace 1.15, written by Peter Selinger 2001-2017
</metadata>
<g transform="translate(0.000000,1280.000000) scale(0.100000,-0.100000)"
fill="#000000" stroke="none">
<path d="M1362 10459 c-35 -4 -89 -15 -120 -24 -74 -21 -242 -104 -241 -118 0
-7 42 -50 93 -97 51 -47 165 -152 252 -235 88 -82 375 -352 639 -600 263 -247
554 -520 645 -606 146 -137 469 -441 1270 -1193 129 -122 280 -264 335 -316
55 -52 206 -194 335 -315 128 -121 315 -296 415 -390 1021 -960 1293 -1214
1329 -1238 116 -77 293 -76 415 3 25 16 183 168 351 337 168 169 719 724 1225
1233 506 509 1266 1274 1690 1700 423 426 990 996 1260 1267 l489 492 -68 31
c-38 18 -103 41 -145 53 l-76 22 -5015 1 c-2758 1 -5043 -2 -5078 -7z"/>
<path d="M12059 9968 c-30 -42 -611 -631 -2202 -2231 l-1268 -1275 338 -333
c186 -184 482 -476 658 -649 176 -174 734 -723 1240 -1220 506 -497 1010 -993
1120 -1102 l200 -198 12 47 c8 36 11 899 12 3380 1 3627 5 3383 -54 3539 -14
37 -27 70 -29 72 -2 2 -14 -12 -27 -30z"/>
<path d="M649 9823 c-18 -66 -26 -6705 -8 -6798 13 -71 49 -185 58 -185 3 1
17 18 31 40 14 21 162 170 330 331 168 161 530 510 805 774 275 265 568 546
650 625 83 79 263 252 400 384 138 133 475 457 750 721 275 264 545 524 600
577 l100 97 -45 44 c-25 24 -344 325 -710 668 -366 343 -741 696 -835 784 -93
88 -201 189 -240 225 -38 36 -114 108 -170 160 -55 52 -206 194 -335 316 -129
121 -460 432 -735 690 -275 259 -530 498 -567 532 l-66 63 -13 -48z"/>
<path d="M7464 5327 c-825 -831 -776 -789 -936 -795 -100 -4 -187 19 -249 66
-31 23 -635 587 -934 872 -187 178 -550 517 -583 545 l-32 27 -248 -238 c-136
-131 -359 -346 -497 -478 -137 -132 -414 -398 -615 -591 -379 -364 -677 -651
-1130 -1085 -146 -140 -483 -464 -749 -719 l-483 -464 38 -24 c64 -38 179 -82
256 -98 64 -13 670 -15 5128 -13 4822 3 5058 4 5115 21 60 18 224 93 258 119
17 13 -8 40 -305 333 -632 625 -984 972 -1878 1850 -498 489 -1022 1005 -1166
1148 l-261 258 -729 -734z"/>
</g>
</svg>
